{"glyphs":{":":{"x_min":0,"x_max":245,"ha":245,"o":"m 161 430 q 142 430 130 441 q 119 452 119 473 q 119 508 136 524 q 154 540 174 540 q 192 540 204 530 q 215 519 215 499 q 215 462 198 446 q 182 430 161 430 z m 68 -7 q 49 -7 38 4 q 26 15 26 37 q 26 71 44 88 q 62 104 81 104 q 99 104 111 94 q 123 83 123 62 q 123 25 106 9 q 89 -7 68 -7 z"},"$":{"x_min":0,"x_max":537,"ha":537,"o":"m 176 -79 l 201 38 q 117 44 75 86 q 33 128 33 187 q 33 218 52 232 q 70 245 87 246 q 87 172 117 128 q 147 84 209 76 l 266 343 q 210 372 176 408 q 143 444 143 507 q 143 589 198 634 q 253 680 339 682 l 355 760 l 395 760 l 379 682 q 445 676 477 647 q 509 618 509 580 q 509 558 496 544 q 482 531 453 531 q 454 556 448 580 q 441 605 423 623 q 405 641 371 646 l 315 386 l 322 383 q 392 346 424 310 q 455 273 455 216 q 455 160 428 121 q 400 82 352 60 q 303 39 241 37 l 216 -79 z m 279 405 l 331 647 q 279 642 243 609 q 207 576 207 515 q 207 474 224 450 q 241 427 279 405 z m 249 75 q 316 80 354 114 q 391 148 391 204 q 391 245 372 272 q 352 299 303 325 z"},"?":{"x_min":0,"x_max":471,"ha":471,"o":"m 173 185 l 202 344 q 305 383 362 437 q 419 491 419 571 q 419 624 388 654 q 356 685 309 685 q 261 685 232 666 q 204 646 190 613 q 176 580 171 542 q 123 542 123 586 q 123 622 144 654 q 166 685 208 704 q 250 724 312 724 q 391 724 438 684 q 485 643 485 566 q 485 507 454 462 q 424 416 369 381 q 314 346 243 319 l 213 185 z m 167 -7 q 148 -7 136 4 q 124 15 124 37 q 124 71 142 88 q 160 104 179 104 q 197 104 209 94 q 221 83 221 62 q 221 25 204 9 q 187 -7 167 -7 z"},"<":{"x_min":0,"x_max":559,"ha":559,"o":"m 494 114 l 65 342 l 65 373 l 494 602 l 494 552 l 129 357 l 494 164 z"},"'":{"x_min":0,"x_max":180,"ha":180,"o":"m 112 502 l 138 714 l 209 714 l 146 502 z"},"=":{"x_min":0,"x_max":559,"ha":559,"o":"m 66 437 l 66 482 l 492 482 l 492 437 z m 66 232 l 66 277 l 492 277 l 492 232 z"},"a":{"x_min":0,"x_max":538,"ha":538,"o":"m 162 -10 q 100 -10 71 38 q 42 86 42 168 q 42 215 54 267 q 66 319 90 368 q 114 418 148 458 q 183 498 228 522 q 273 546 328 546 q 362 546 390 536 q 419 525 438 508 l 472 535 l 494 535 l 422 208 q 418 186 412 151 q 406 116 406 94 q 406 36 442 36 q 474 36 514 66 l 529 42 q 508 22 476 6 q 444 -10 413 -10 q 341 -10 341 78 q 341 97 344 116 q 347 134 352 156 l 347 156 q 306 70 260 30 q 213 -10 162 -10 z m 183 36 q 211 36 240 58 q 270 81 297 119 q 324 157 345 204 q 366 251 377 301 l 413 470 q 401 490 378 500 q 356 510 330 510 q 288 510 253 487 q 218 464 192 426 q 165 387 147 342 q 129 296 120 250 q 110 204 110 166 q 110 95 130 66 q 151 36 183 36 z"},"L":{"x_min":0,"x_max":601,"ha":601,"o":"m -17 0 l -10 32 l 12 32 q 38 32 55 36 q 72 41 83 56 q 94 72 102 105 l 208 605 q 210 617 212 628 q 214 639 214 646 q 214 668 198 675 q 182 682 154 682 l 127 682 l 134 714 l 396 714 l 389 682 l 362 682 q 327 682 306 669 q 286 656 276 605 l 155 39 l 370 39 q 416 39 437 60 q 458 82 472 128 l 497 210 l 537 210 l 485 0 z"},"3":{"x_min":0,"x_max":537,"ha":537,"o":"m 189 -10 q 122 -10 80 6 q 39 22 20 47 q 2 72 2 101 q 2 125 17 140 q 32 154 55 154 q 55 103 88 67 q 120 31 194 31 q 270 31 320 78 q 371 124 371 219 q 371 279 332 316 q 294 353 225 353 l 182 353 l 192 392 l 224 392 q 280 392 325 414 q 370 437 396 478 q 423 520 423 577 q 423 624 396 654 q 368 685 315 685 q 264 685 234 664 q 203 642 188 607 q 172 572 168 531 q 146 531 131 542 q 116 554 116 582 q 116 621 142 654 q 168 686 214 705 q 259 724 318 724 q 395 724 444 684 q 492 644 492 576 q 492 503 444 446 q 396 390 300 376 q 360 369 400 330 q 441 290 441 225 q 441 142 406 90 q 370 38 312 14 q 255 -10 189 -10 z"},";":{"x_min":0,"x_max":245,"ha":245,"o":"m 161 430 q 142 430 130 441 q 119 452 119 473 q 119 508 136 524 q 154 540 174 540 q 192 540 204 530 q 215 519 215 499 q 215 462 198 446 q 182 430 161 430 z m -26 -143 l -25 -111 q 24 -99 47 -75 q 70 -51 70 -21 q 70 -8 62 0 q 55 8 44 15 q 34 22 26 32 q 19 41 19 57 q 19 79 32 91 q 46 103 66 103 q 90 103 107 84 q 124 66 124 32 q 124 -29 90 -77 q 56 -125 -26 -143 z"},"J":{"x_min":0,"x_max":335,"ha":335,"o":"m -69 -240 q -94 -240 -112 -237 q -131 -234 -149 -229 l -138 -194 q -125 -198 -105 -200 q -85 -203 -70 -203 q -36 -203 -10 -186 q 16 -168 35 -126 q 54 -85 70 -12 l 202 605 q 205 617 206 628 q 208 639 208 646 q 208 668 192 675 q 176 682 148 682 l 117 682 l 124 714 l 392 714 l 386 682 l 356 682 q 321 682 300 668 q 280 655 269 603 l 137 -12 q 120 -94 94 -144 q 68 -194 28 -217 q -11 -240 -69 -240 z"},"V":{"x_min":0,"x_max":661,"ha":661,"o":"m 240 0 l 153 613 q 146 658 135 670 q 124 682 96 682 l 81 682 l 88 714 l 319 714 l 313 682 l 285 682 q 221 682 221 636 q 221 626 222 614 q 224 602 225 596 l 271 247 q 277 203 282 156 q 286 109 288 73 q 304 109 326 152 q 348 196 375 243 l 570 590 q 580 608 587 625 q 594 642 594 652 q 594 669 582 676 q 570 682 540 682 l 508 682 l 514 714 l 748 714 l 741 682 l 723 682 q 700 682 686 677 q 673 672 660 655 q 648 638 628 604 l 289 0 z"},"\"":{"x_min":0,"x_max":350,"ha":350,"o":"m 116 488 l 146 714 l 217 714 l 151 488 z m 278 488 l 308 714 l 379 714 l 312 488 z"},"7":{"x_min":0,"x_max":537,"ha":537,"o":"m 124 0 l 488 659 l 210 659 q 181 659 167 648 q 153 638 144 607 l 127 549 l 95 549 l 137 714 l 558 714 l 552 688 l 178 0 z"},"S":{"x_min":0,"x_max":519,"ha":519,"o":"m 214 -10 q 142 -10 95 11 q 48 32 24 67 q 1 102 1 144 q 1 172 17 186 q 33 199 55 199 q 55 122 94 75 q 132 28 217 28 q 298 28 346 66 q 393 103 393 171 q 393 202 382 228 q 372 254 343 280 q 314 306 257 338 q 196 374 158 417 q 121 460 121 531 q 121 586 148 630 q 175 674 226 699 q 276 724 347 724 q 437 724 480 690 q 523 656 523 611 q 523 588 508 574 q 494 560 463 560 q 464 590 454 618 q 445 647 418 666 q 392 685 342 685 q 302 685 267 670 q 232 654 210 622 q 188 590 188 540 q 188 487 218 454 q 249 422 308 387 q 392 338 427 294 q 462 250 462 188 q 462 94 396 42 q 330 -10 214 -10 z"},"}":{"x_min":0,"x_max":420,"ha":420,"o":"m -35 -130 l -27 -95 l 0 -95 q 50 -95 72 -70 q 95 -46 109 16 l 146 190 q 156 242 187 274 q 218 307 277 315 l 277 318 q 234 323 214 346 q 194 370 194 405 q 194 416 196 428 q 198 439 200 451 l 235 612 q 237 625 239 638 q 241 650 241 661 q 241 695 225 710 q 209 725 177 725 l 140 725 l 148 760 l 204 760 q 308 760 308 664 q 308 652 306 640 q 304 628 302 614 l 267 452 q 264 440 262 428 q 260 416 260 406 q 260 366 286 350 q 311 334 361 333 l 353 298 q 299 295 262 273 q 224 251 210 187 l 173 12 q 162 -38 146 -69 q 131 -100 100 -115 q 69 -130 14 -130 z"},"Z":{"x_min":0,"x_max":569,"ha":569,"o":"m -22 0 l -15 30 l 505 675 l 235 675 q 190 675 173 658 q 156 642 145 611 l 130 563 l 90 563 l 127 714 l 600 714 l 593 683 l 73 39 l 377 39 q 418 39 435 56 q 452 73 462 105 l 477 156 l 517 156 l 479 0 z"},"x":{"x_min":0,"x_max":503,"ha":503,"o":"m -22 0 l -14 32 l -1 32 q 18 32 31 36 q 44 40 58 53 q 71 66 91 93 l 226 274 l 163 440 q 152 467 144 480 q 137 494 127 499 q 117 504 99 504 l 82 504 l 89 536 l 194 536 l 271 322 l 410 536 l 514 536 l 506 504 l 493 504 q 472 504 459 500 q 446 495 433 482 q 420 468 399 440 l 288 284 l 360 89 q 374 53 384 42 q 395 32 424 32 l 438 32 l 431 0 l 326 0 l 242 237 l 83 0 z"},")":{"x_min":0,"x_max":315,"ha":315,"o":"m -53 -126 l -45 -90 q 14 -59 58 -10 q 102 40 132 100 q 163 161 182 226 q 201 290 210 350 q 218 411 218 460 q 218 510 209 558 q 200 607 180 647 q 160 687 127 712 l 135 748 q 213 707 248 624 q 282 542 282 435 q 282 351 262 264 q 242 176 202 98 q 161 20 98 -39 q 34 -98 -53 -126 z"},"&":{"x_min":0,"x_max":708,"ha":708,"o":"m 229 -10 q 159 -10 113 16 q 67 41 44 84 q 22 126 22 176 q 22 241 50 284 q 79 328 126 356 q 174 384 230 404 q 207 443 193 480 q 179 518 179 553 q 179 633 230 678 q 282 724 382 724 q 464 724 502 686 q 541 648 541 595 q 541 541 518 508 q 494 474 443 449 q 392 424 311 394 l 466 180 q 492 226 510 275 q 529 324 539 370 l 548 415 l 714 415 l 707 383 l 674 383 q 640 383 617 372 q 594 361 575 314 q 560 277 538 232 q 517 186 491 144 l 542 75 q 562 49 579 40 q 596 32 634 32 l 658 32 l 651 0 l 517 0 l 451 93 q 412 49 357 20 q 302 -10 229 -10 z m 290 425 q 358 450 400 472 q 441 495 460 522 q 478 550 478 591 q 478 632 452 659 q 426 686 377 686 q 310 686 277 652 q 244 617 244 557 q 244 530 254 498 q 264 466 290 425 z m 235 32 q 298 32 346 58 q 393 85 428 126 l 253 371 q 168 337 128 295 q 89 253 89 177 q 89 138 106 105 q 123 72 156 52 q 188 32 235 32 z"},"_":{"x_min":0,"x_max":459,"ha":459,"o":"m -88 -127 l -79 -83 l 390 -83 l 380 -127 z"},"v":{"x_min":0,"x_max":509,"ha":509,"o":"m 168 -9 l 99 447 q 93 484 79 494 q 65 504 33 504 l 18 504 l 25 536 l 149 536 l 194 240 q 202 190 209 136 q 216 81 220 46 l 223 46 q 286 111 331 178 q 376 245 400 306 q 425 366 425 411 q 425 452 411 469 q 397 486 377 486 q 377 515 392 529 q 408 543 425 543 q 450 543 464 522 q 479 500 479 454 q 479 382 444 304 q 410 225 354 147 q 297 69 232 1 z"},"O":{"x_min":0,"x_max":718,"ha":718,"o":"m 306 -11 q 235 -11 178 20 q 121 52 88 114 q 54 176 54 266 q 54 324 70 387 q 85 450 116 510 q 147 570 194 618 q 240 667 301 696 q 362 725 439 725 q 506 725 562 696 q 619 667 654 606 q 688 546 688 450 q 688 395 673 332 q 658 269 628 208 q 598 148 552 98 q 506 48 444 18 q 383 -11 306 -11 z m 311 30 q 372 30 421 58 q 470 87 506 134 q 543 181 568 238 q 592 296 604 355 q 616 414 616 464 q 616 542 592 590 q 567 639 526 662 q 484 684 432 684 q 371 684 322 656 q 273 627 236 580 q 199 533 174 476 q 150 419 138 360 q 126 302 126 251 q 126 174 151 125 q 176 76 218 53 q 260 30 311 30 z"},"(":{"x_min":0,"x_max":315,"ha":315,"o":"m 189 -122 q 112 -81 77 2 q 42 86 42 192 q 42 276 62 363 q 82 450 123 528 q 164 606 228 665 q 291 724 378 753 l 369 717 q 310 686 266 636 q 222 587 192 526 q 161 466 142 402 q 123 337 114 276 q 106 216 106 167 q 106 91 127 22 q 148 -48 198 -85 z"},"C":{"x_min":0,"x_max":603,"ha":603,"o":"m 310 -10 q 228 -10 171 24 q 114 57 84 118 q 54 178 54 257 q 54 346 81 430 q 108 513 158 580 q 209 646 280 685 q 351 724 438 724 q 526 724 573 690 q 620 656 620 600 q 620 574 602 559 q 584 544 555 544 q 555 582 544 614 q 533 646 506 665 q 479 684 431 684 q 373 684 325 658 q 277 632 240 588 q 203 543 178 486 q 152 430 139 368 q 126 307 126 248 q 126 155 175 96 q 224 36 315 36 q 386 36 430 62 q 475 88 503 128 q 513 121 513 103 q 513 78 490 52 q 468 25 423 8 q 378 -10 310 -10 z"},"W":{"x_min":0,"x_max":1020,"ha":1020,"o":"m 218 0 l 163 613 q 159 658 147 670 q 135 682 107 682 l 92 682 l 99 714 l 334 714 l 326 682 l 294 682 q 231 682 231 636 q 231 612 233 596 l 262 252 q 266 207 269 158 q 272 110 274 74 q 290 112 310 158 q 331 204 356 254 l 575 707 l 627 707 l 662 256 q 666 209 668 160 q 670 112 671 73 q 687 109 706 152 q 726 194 751 244 l 925 590 q 935 609 942 626 q 948 642 948 652 q 948 669 936 676 q 924 682 894 682 l 866 682 l 873 714 l 1096 714 l 1089 682 l 1075 682 q 1052 682 1038 678 q 1024 673 1011 656 q 998 640 980 604 l 677 0 l 616 0 l 569 603 l 279 0 z"},"A":{"x_min":0,"x_max":677,"ha":677,"o":"m -58 0 l -52 32 l -34 32 q -12 32 2 37 q 16 42 29 59 q 42 76 62 110 l 415 714 l 461 714 l 558 101 q 565 56 576 44 q 586 32 614 32 l 630 32 l 623 0 l 392 0 l 399 32 l 427 32 q 490 32 490 78 q 490 88 489 100 q 488 112 487 118 l 468 244 l 190 244 l 120 124 q 110 106 104 89 q 97 72 97 62 q 97 45 109 38 q 121 32 151 32 l 182 32 l 176 0 z m 328 482 l 212 283 l 462 283 l 434 473 q 428 517 422 562 q 416 608 414 644 q 398 608 377 568 q 356 529 328 482 z"},"f":{"x_min":0,"x_max":278,"ha":278,"o":"m -81 -240 q -96 -240 -111 -238 q -126 -235 -137 -232 l -129 -196 q -120 -198 -106 -200 q -93 -203 -82 -203 q -51 -203 -30 -188 q -9 -172 7 -133 q 23 -94 38 -24 l 149 494 l 61 494 l 66 521 l 157 536 l 170 601 q 186 680 225 725 q 264 770 335 770 q 391 770 419 747 q 447 724 447 690 q 447 641 390 641 q 390 684 378 709 q 366 734 332 734 q 292 734 270 701 q 248 668 235 606 l 221 536 l 322 536 l 314 494 l 212 494 l 102 -24 q 84 -109 60 -156 q 36 -203 2 -222 q -33 -240 -81 -240 z"},"Q":{"x_min":0,"x_max":718,"ha":718,"o":"m 440 -218 q 377 -218 340 -190 q 304 -162 288 -114 q 272 -66 268 -8 q 206 0 158 33 q 110 66 82 125 q 54 184 54 266 q 54 324 70 387 q 85 450 116 510 q 147 570 194 618 q 240 667 301 696 q 362 725 439 725 q 506 725 562 696 q 619 667 654 606 q 688 546 688 450 q 688 397 674 337 q 661 277 633 218 q 605 160 564 111 q 522 62 466 30 q 410 -2 340 -9 q 345 -90 372 -135 q 398 -180 453 -180 q 479 -180 501 -176 q 523 -173 543 -168 l 550 -202 q 527 -209 502 -214 q 477 -218 440 -218 z m 311 30 q 372 30 421 58 q 470 87 506 134 q 543 181 568 238 q 592 296 604 355 q 616 414 616 464 q 616 542 592 590 q 567 639 526 662 q 484 684 432 684 q 371 684 322 656 q 273 627 236 580 q 199 533 174 476 q 150 419 138 360 q 126 302 126 251 q 126 174 151 125 q 176 76 218 53 q 260 30 311 30 z"},"w":{"x_min":0,"x_max":790,"ha":790,"o":"m 441 -12 q 440 25 438 76 q 437 126 434 182 q 432 237 430 290 q 428 342 426 384 q 425 426 424 448 q 414 426 392 382 q 370 338 342 284 q 315 230 286 175 q 258 120 234 74 q 209 27 194 0 l 122 -11 l 113 437 q 112 482 100 493 q 87 504 56 504 l 39 504 l 49 536 l 173 536 q 174 483 176 420 q 177 357 178 292 q 179 226 180 166 q 180 107 180 61 l 184 61 q 207 103 238 160 q 268 217 300 282 q 333 346 364 410 q 395 473 420 527 l 478 531 q 480 501 483 452 q 486 404 489 347 q 492 290 494 234 q 497 177 498 130 q 500 83 500 56 l 505 56 q 568 134 615 206 q 662 277 688 336 q 713 396 713 437 q 713 470 702 483 q 692 496 676 500 q 678 520 690 533 q 701 546 719 546 q 764 546 764 469 q 764 386 701 275 q 638 164 508 -2 z"},"-":{"x_min":0,"x_max":310,"ha":310,"o":"m 18 249 l 29 302 l 289 302 l 278 249 z"},"E":{"x_min":0,"x_max":614,"ha":614,"o":"m -17 0 l -11 32 l 11 32 q 36 32 54 36 q 71 40 82 55 q 94 70 101 103 l 204 589 q 208 607 210 621 q 213 635 213 643 q 213 668 198 675 q 182 682 150 682 l 127 682 l 135 714 l 616 714 l 585 545 l 545 545 q 546 552 548 568 q 550 583 552 598 q 554 614 554 619 q 554 648 540 662 q 527 675 488 675 l 291 675 l 230 393 l 480 393 l 472 355 l 222 355 l 155 39 l 379 39 q 426 39 448 58 q 470 77 484 123 l 499 169 l 539 169 l 497 0 z"},"s":{"x_min":0,"x_max":434,"ha":434,"o":"m 182 -10 q 109 -10 70 24 q 30 59 30 108 q 30 138 45 149 q 60 160 75 160 q 75 104 101 66 q 127 28 188 28 q 244 28 274 57 q 305 86 305 132 q 305 170 282 198 q 260 226 207 251 q 151 279 122 312 q 92 345 92 401 q 92 463 138 504 q 185 546 261 546 q 311 546 342 531 q 374 516 388 492 q 403 468 403 443 q 403 420 390 408 q 376 395 352 395 q 352 424 343 450 q 334 476 314 492 q 293 509 257 509 q 209 509 180 481 q 152 453 152 411 q 152 374 175 349 q 198 324 248 300 q 302 274 334 238 q 365 203 365 148 q 365 104 344 68 q 322 32 281 11 q 240 -10 182 -10 z"},">":{"x_min":0,"x_max":559,"ha":559,"o":"m 65 114 l 65 164 l 428 357 l 65 552 l 65 602 l 494 373 l 494 342 z"},"l":{"x_min":0,"x_max":276,"ha":276,"o":"m 145 -10 q 108 -10 89 15 q 70 40 70 80 q 70 111 77 152 q 84 192 90 223 l 177 640 q 181 656 183 672 q 185 687 185 694 q 185 716 170 722 q 156 728 128 728 l 101 728 l 108 760 l 267 760 l 151 209 q 146 186 140 151 q 134 116 134 92 q 134 66 142 51 q 151 36 170 36 q 202 36 242 66 l 258 42 q 236 22 207 6 q 178 -10 145 -10 z"},"8":{"x_min":0,"x_max":537,"ha":537,"o":"m 231 -10 q 127 -10 72 38 q 16 85 16 157 q 16 213 43 254 q 70 294 117 323 q 164 352 223 373 q 114 441 114 540 q 114 590 138 632 q 162 673 211 698 q 260 724 337 724 q 425 724 472 682 q 518 640 518 578 q 518 502 468 456 q 417 411 330 380 q 397 345 433 301 q 469 257 469 193 q 469 123 436 78 q 403 33 349 12 q 295 -10 231 -10 z m 292 400 q 381 432 419 474 q 457 515 457 574 q 457 620 427 652 q 397 685 332 685 q 263 685 221 646 q 179 608 179 546 q 179 500 206 466 q 232 432 292 400 z m 233 28 q 306 28 356 66 q 405 104 405 179 q 405 240 370 278 q 335 316 259 352 q 181 326 131 278 q 81 229 81 157 q 81 98 120 63 q 159 28 233 28 z"},"\\":{"x_min":0,"x_max":288,"ha":288,"o":"m 162 -121 l 119 760 l 163 760 l 207 -121 z"},"e":{"x_min":0,"x_max":468,"ha":468,"o":"m 223 -10 q 174 -10 134 13 q 94 36 70 81 q 45 126 45 194 q 45 250 62 312 q 80 373 115 426 q 150 480 201 513 q 252 546 319 546 q 377 546 410 516 q 442 486 442 433 q 442 377 404 332 q 366 288 301 262 q 236 236 156 236 l 117 236 q 116 227 115 214 q 114 201 114 190 q 114 119 146 78 q 179 37 233 37 q 280 37 316 60 q 353 83 374 114 q 382 109 382 94 q 382 74 364 50 q 346 25 311 8 q 276 -10 223 -10 z m 123 272 l 143 272 q 208 272 260 292 q 312 311 342 348 q 373 384 373 434 q 373 469 356 488 q 338 508 304 508 q 258 508 221 473 q 184 438 159 384 q 134 330 123 272 z"},"b":{"x_min":0,"x_max":528,"ha":528,"o":"m 201 -10 q 166 -10 137 2 q 108 14 91 28 l 57 -3 l 35 -3 l 170 635 q 174 655 176 671 q 179 687 179 694 q 179 716 164 722 q 150 728 122 728 l 97 728 l 104 760 l 263 760 l 212 517 q 205 487 196 453 q 187 419 181 398 l 186 398 q 220 463 265 504 q 310 546 369 546 q 424 546 454 500 q 485 454 485 367 q 485 306 466 240 q 446 174 410 117 q 373 60 320 25 q 268 -10 201 -10 z m 198 26 q 241 26 276 50 q 311 73 338 111 q 364 149 382 194 q 399 240 408 286 q 417 331 417 368 q 417 437 398 468 q 378 500 347 500 q 314 500 283 475 q 252 450 226 412 q 200 375 182 336 q 163 296 157 267 l 114 66 q 128 50 150 38 q 171 26 198 26 z"},"%":{"x_min":0,"x_max":871,"ha":871,"o":"m 189 282 q 133 282 100 322 q 67 362 67 443 q 67 484 78 532 q 90 580 114 623 q 138 666 176 694 q 213 722 264 722 q 327 722 356 678 q 385 634 385 562 q 385 523 374 475 q 362 427 338 383 q 315 339 278 310 q 240 282 189 282 z m 168 0 l 664 714 l 715 714 l 221 0 z m 191 315 q 226 315 252 342 q 277 369 294 410 q 311 451 320 494 q 328 538 328 571 q 328 689 262 689 q 227 689 200 662 q 174 635 156 594 q 139 554 130 511 q 122 468 122 435 q 122 315 191 315 z m 627 -7 q 569 -7 536 34 q 504 74 504 154 q 504 194 516 242 q 527 291 551 334 q 575 377 612 405 q 650 433 701 433 q 764 433 793 389 q 822 345 822 273 q 822 234 810 186 q 799 138 776 94 q 752 50 715 22 q 678 -7 627 -7 z m 629 26 q 664 26 690 53 q 715 80 732 121 q 748 162 756 206 q 765 249 765 282 q 765 400 699 400 q 663 400 636 373 q 610 346 593 306 q 576 265 568 222 q 559 179 559 146 q 559 26 629 26 z"},"m":{"x_min":0,"x_max":844,"ha":844,"o":"m 721 -10 q 682 -10 662 16 q 642 42 642 87 q 642 133 660 214 l 683 316 q 686 326 690 347 q 695 368 699 390 q 703 413 703 429 q 703 454 692 476 q 680 498 642 498 q 611 498 582 476 q 552 455 526 422 q 500 388 480 350 q 461 312 452 279 l 434 202 q 428 177 422 138 q 416 99 412 61 q 407 23 407 0 l 342 0 q 342 24 347 62 q 352 99 359 140 q 366 180 373 212 l 396 316 q 398 326 403 347 q 408 368 412 390 q 416 413 416 429 q 416 454 404 476 q 392 498 354 498 q 322 498 291 476 q 260 453 234 417 q 208 381 189 340 q 170 298 162 261 l 107 0 l 44 0 l 130 416 q 132 427 134 440 q 135 454 135 462 q 135 489 119 496 q 103 504 69 504 l 55 504 l 62 536 l 215 536 l 191 408 l 197 408 q 239 478 282 511 q 325 544 378 544 q 435 544 458 512 q 481 480 481 436 q 481 423 478 408 l 485 408 q 526 478 570 511 q 613 544 666 544 q 722 544 745 512 q 768 480 768 436 q 768 412 762 382 q 755 353 750 328 l 722 203 q 715 174 711 145 q 707 116 707 93 q 707 36 744 36 q 774 36 811 64 l 827 40 q 804 20 780 5 q 755 -10 721 -10 z"},"#":{"x_min":0,"x_max":559,"ha":559,"o":"m 64 0 l 125 210 l 22 210 l 28 254 l 138 254 l 201 469 l 89 469 l 95 513 l 214 513 l 273 714 l 319 714 l 260 513 l 423 513 l 482 714 l 527 714 l 468 513 l 570 513 l 564 469 l 455 469 l 393 254 l 504 254 l 498 210 l 379 210 l 318 0 l 272 0 l 334 210 l 170 210 l 109 0 z m 184 254 l 347 254 l 410 469 l 247 469 z"},",":{"x_min":0,"x_max":219,"ha":219,"o":"m -37 -143 l -36 -111 q 13 -99 36 -75 q 59 -51 59 -21 q 59 -8 52 0 q 44 8 34 15 q 23 22 16 32 q 8 41 8 57 q 8 79 22 91 q 35 103 55 103 q 79 103 96 84 q 113 66 113 32 q 113 -29 80 -77 q 46 -125 -37 -143 z"},"n":{"x_min":0,"x_max":557,"ha":557,"o":"m 435 -10 q 397 -10 377 16 q 357 42 357 87 q 357 133 375 214 l 398 316 q 400 326 405 347 q 410 368 414 390 q 418 413 418 429 q 418 454 406 476 q 395 498 356 498 q 324 498 293 476 q 262 453 236 417 q 210 381 191 340 q 172 298 164 261 l 110 0 l 46 0 l 132 416 q 134 427 136 440 q 138 454 138 462 q 138 489 122 496 q 106 504 72 504 l 57 504 l 65 536 l 218 536 l 193 408 l 199 408 q 241 478 284 511 q 328 544 380 544 q 437 544 460 512 q 483 480 483 436 q 483 412 476 382 q 470 353 465 328 l 437 203 q 430 174 426 145 q 422 116 422 93 q 422 36 459 36 q 489 36 526 64 l 542 40 q 520 20 495 5 q 470 -10 435 -10 z"},"h":{"x_min":0,"x_max":557,"ha":557,"o":"m 435 -10 q 397 -10 377 16 q 357 42 357 87 q 357 133 375 214 l 398 316 q 400 326 405 347 q 410 368 414 390 q 418 413 418 429 q 418 454 406 476 q 395 498 356 498 q 324 498 293 476 q 262 453 236 417 q 210 381 191 340 q 172 298 164 261 l 110 0 l 46 0 l 178 635 q 182 655 184 670 q 186 684 186 689 q 186 714 171 721 q 156 728 119 728 l 105 728 l 112 760 l 268 760 l 224 546 q 216 506 206 468 q 197 430 191 408 l 198 408 q 240 478 284 511 q 328 544 380 544 q 437 544 460 512 q 483 480 483 436 q 483 412 476 382 q 470 353 465 328 l 437 203 q 430 174 426 145 q 422 116 422 93 q 422 36 459 36 q 489 36 526 64 l 542 40 q 519 20 494 5 q 469 -10 435 -10 z"},"z":{"x_min":0,"x_max":481,"ha":481,"o":"m 0 0 l 7 31 l 358 494 l 219 494 q 180 494 166 480 q 152 466 137 431 l 128 406 l 96 406 l 134 536 l 444 536 l 438 504 l 86 42 l 275 42 q 314 42 330 61 q 345 80 357 114 l 370 151 l 402 151 l 365 0 z"},"B":{"x_min":0,"x_max":641,"ha":641,"o":"m -17 0 l -10 32 l 14 32 q 39 32 56 36 q 73 40 84 56 q 95 71 102 104 l 207 599 q 209 612 212 626 q 214 640 214 646 q 214 669 198 676 q 181 682 146 682 l 127 682 l 134 714 l 367 714 q 598 714 598 564 q 598 481 553 436 q 508 392 435 378 l 434 374 q 488 364 522 327 q 556 290 556 228 q 556 121 488 60 q 420 0 278 0 z m 230 394 l 320 394 q 398 394 443 414 q 488 433 507 470 q 526 507 526 557 q 526 613 484 644 q 443 675 360 675 l 291 675 z m 155 39 l 270 39 q 386 39 435 90 q 484 142 484 233 q 484 356 319 356 l 223 356 z"},"K":{"x_min":0,"x_max":676,"ha":676,"o":"m -17 0 l -11 32 l 15 32 q 51 32 72 46 q 92 59 103 111 l 208 605 q 210 617 212 628 q 214 639 214 646 q 214 668 198 675 q 182 682 154 682 l 127 682 l 134 714 l 396 714 l 389 682 l 362 682 q 327 682 306 668 q 286 655 275 603 l 211 309 l 519 585 q 561 623 574 639 q 588 655 588 666 q 588 676 578 680 q 568 683 536 683 l 543 714 l 737 714 l 731 683 q 710 683 692 674 q 673 666 648 645 q 622 624 580 587 l 381 408 l 509 102 q 538 34 597 34 l 610 34 l 603 0 l 582 0 q 517 0 488 19 q 458 38 440 83 l 327 358 l 202 260 l 170 109 q 167 97 166 86 q 164 75 164 68 q 164 46 180 39 q 196 32 224 32 l 251 32 l 244 0 z"},"R":{"x_min":0,"x_max":639,"ha":639,"o":"m -17 0 l -10 32 l 16 32 q 50 32 70 45 q 91 58 102 109 l 205 591 q 209 609 212 624 q 214 640 214 647 q 214 670 198 676 q 183 682 150 682 l 127 682 l 135 714 l 371 714 q 585 714 585 543 q 585 488 561 442 q 537 397 492 368 q 448 338 385 331 l 458 110 q 472 67 488 50 q 505 34 538 34 l 554 34 l 547 0 l 527 0 q 484 0 458 8 q 432 17 415 40 q 398 62 386 105 l 321 320 l 215 320 l 170 109 q 167 97 166 86 q 164 75 164 68 q 164 46 180 39 q 196 32 224 32 l 269 32 l 262 0 z m 223 357 l 318 357 q 409 357 462 405 q 514 453 514 539 q 514 610 478 643 q 441 676 364 676 l 291 676 z"},"T":{"x_min":0,"x_max":590,"ha":590,"o":"m 84 0 l 91 32 l 120 32 q 150 32 170 36 q 190 41 202 56 q 213 72 220 106 l 341 675 l 237 675 q 202 675 182 668 q 162 660 152 642 q 142 624 133 595 l 120 550 l 81 550 l 120 714 l 649 714 l 619 550 l 579 550 q 581 567 584 590 q 586 612 586 623 q 586 648 574 662 q 563 675 524 675 l 409 675 l 288 106 q 285 95 284 84 q 282 74 282 70 q 282 46 298 39 q 315 32 355 32 l 384 32 l 377 0 z"},"P":{"x_min":0,"x_max":590,"ha":590,"o":"m -17 0 l -10 32 l 16 32 q 51 32 72 46 q 92 59 103 111 l 205 591 q 209 609 212 624 q 214 640 214 647 q 214 670 198 676 q 183 682 150 682 l 127 682 l 135 714 l 367 714 q 468 714 526 666 q 584 617 584 522 q 584 484 572 442 q 560 401 528 364 q 495 328 434 305 q 374 282 277 282 l 207 282 l 170 109 q 167 97 166 86 q 164 75 164 68 q 164 46 180 39 q 196 32 224 32 l 269 32 l 262 0 z m 215 319 l 272 319 q 360 319 412 346 q 465 372 489 418 q 513 464 513 521 q 513 600 472 638 q 432 676 352 676 l 291 676 z"},"|":{"x_min":0,"x_max":559,"ha":559,"o":"m 256 -240 l 256 760 l 301 760 l 301 -240 z"},"t":{"x_min":0,"x_max":333,"ha":333,"o":"m 168 -10 q 118 -10 96 17 q 73 44 73 92 q 73 109 76 133 q 80 157 87 191 l 151 494 l 76 494 l 83 524 q 114 524 138 534 q 161 545 180 574 q 198 603 216 659 l 250 659 l 223 536 l 340 536 l 331 494 l 215 494 l 151 193 q 143 154 140 132 q 136 109 136 93 q 136 36 188 36 q 210 36 231 42 q 252 47 273 57 l 285 27 q 257 10 227 0 q 197 -10 168 -10 z"},"M":{"x_min":0,"x_max":930,"ha":930,"o":"m -17 0 l -10 32 l 17 32 q 52 32 72 45 q 92 58 102 109 l 208 605 q 210 617 212 628 q 214 639 214 646 q 214 668 198 675 q 182 682 154 682 l 127 682 l 134 714 l 319 714 l 425 98 l 794 714 l 978 714 l 971 682 l 945 682 q 909 682 888 668 q 868 655 858 603 l 753 109 q 750 97 748 86 q 746 75 746 68 q 746 46 762 39 q 778 32 807 32 l 833 32 l 826 0 l 578 0 l 584 32 l 607 32 q 642 32 658 44 q 675 57 687 106 l 803 650 l 416 0 l 375 0 l 263 650 l 148 109 q 146 97 144 86 q 142 75 142 68 q 142 46 158 39 q 174 32 202 32 l 230 32 l 223 0 z"},"g":{"x_min":0,"x_max":524,"ha":524,"o":"m 171 -240 q 71 -240 16 -206 q -38 -173 -38 -106 q -38 -61 -14 -30 q 10 1 48 20 q 85 40 127 48 q 108 56 94 71 q 81 86 81 109 q 81 135 100 157 q 118 179 169 202 q 138 217 118 247 q 99 277 99 321 q 99 356 112 395 q 124 434 150 468 q 177 503 218 524 q 258 546 315 546 q 344 546 370 538 q 395 530 414 514 q 436 542 460 559 q 484 576 513 576 q 534 576 546 564 q 557 553 557 535 q 557 516 546 502 q 535 488 512 488 q 512 525 486 525 q 472 525 459 516 q 446 508 432 494 q 442 480 449 459 q 456 438 456 410 q 456 378 444 340 q 432 301 406 266 q 381 232 340 210 q 298 188 239 188 q 222 188 208 191 q 176 178 154 162 q 132 146 132 123 q 132 107 148 99 q 163 91 184 89 l 270 80 q 346 72 384 41 q 422 10 422 -48 q 422 -102 396 -146 q 369 -189 314 -214 q 258 -240 171 -240 z m 246 226 q 288 226 316 246 q 345 266 362 296 q 379 326 386 358 q 394 390 394 414 q 394 464 370 487 q 346 510 307 510 q 266 510 238 490 q 210 471 194 441 q 177 411 170 378 q 162 346 162 319 q 162 272 186 249 q 209 226 246 226 z m 173 -202 q 243 -202 284 -182 q 326 -163 344 -132 q 362 -100 362 -64 q 362 -26 336 -4 q 311 18 257 22 l 172 30 q 105 20 62 -12 q 19 -44 19 -103 q 19 -146 54 -174 q 88 -202 173 -202 z"},"j":{"x_min":0,"x_max":263,"ha":263,"o":"m 214 656 q 196 656 184 666 q 172 677 172 698 q 172 722 184 737 q 197 752 217 752 q 235 752 247 742 q 259 731 259 710 q 259 680 244 668 q 230 656 214 656 z m -85 -240 q -102 -240 -116 -238 q -130 -236 -140 -233 l -133 -197 q -124 -199 -111 -201 q -98 -203 -86 -203 q -36 -203 -6 -160 q 24 -116 46 -9 l 137 429 q 138 437 140 446 q 141 456 141 464 q 141 490 127 497 q 113 504 81 504 l 64 504 l 71 536 l 223 536 l 110 -9 q 91 -98 64 -148 q 38 -199 1 -220 q -36 -240 -85 -240 z"},"i":{"x_min":0,"x_max":279,"ha":279,"o":"m 214 656 q 195 656 184 666 q 172 677 172 698 q 172 722 184 737 q 197 752 217 752 q 235 752 247 742 q 259 731 259 710 q 259 680 244 668 q 230 656 214 656 z m 148 -10 q 113 -10 94 16 q 75 41 75 84 q 75 112 82 152 q 88 192 95 223 l 137 429 q 138 437 140 446 q 141 456 141 464 q 141 490 127 497 q 113 504 80 504 l 64 504 l 71 536 l 223 536 l 155 209 q 150 186 144 151 q 139 116 139 94 q 139 36 175 36 q 206 36 245 66 l 261 42 q 239 22 210 6 q 180 -10 148 -10 z"},"y":{"x_min":0,"x_max":502,"ha":502,"o":"m -62 -240 q -112 -240 -150 -222 l -137 -184 q -125 -189 -107 -194 q -89 -198 -61 -198 q 4 -198 54 -172 q 104 -145 145 -98 q 186 -52 226 10 l 90 451 q 79 485 66 494 q 54 504 25 504 l 13 504 l 19 536 l 133 536 l 226 234 q 234 209 242 178 q 250 147 257 118 q 264 89 266 71 l 269 71 q 307 132 338 196 q 369 260 388 320 q 406 380 406 428 q 406 462 396 476 q 385 490 366 490 q 366 516 380 530 q 395 544 414 544 q 438 544 452 524 q 466 504 466 461 q 466 372 420 269 q 374 166 303 51 q 256 -27 216 -82 q 177 -138 137 -173 q 97 -208 50 -224 q 2 -240 -62 -240 z"},"@":{"x_min":0,"x_max":886,"ha":886,"o":"m 395 -141 q 296 -141 220 -100 q 145 -59 102 20 q 60 98 60 210 q 60 317 92 410 q 125 502 184 572 q 244 641 327 680 q 410 719 512 719 q 622 719 696 676 q 769 632 806 558 q 842 484 842 394 q 842 300 814 229 q 787 158 742 118 q 698 79 645 79 q 602 79 576 104 q 549 130 539 173 l 534 173 q 514 132 480 106 q 446 79 396 79 q 337 79 296 119 q 254 159 254 242 q 254 287 269 338 q 284 388 314 432 q 344 476 390 504 q 435 531 497 531 q 528 531 552 522 q 576 513 592 499 l 621 522 l 641 522 l 591 265 q 588 253 586 235 q 584 217 584 198 q 584 156 603 138 q 622 120 648 120 q 684 120 718 152 q 752 185 774 246 q 796 308 796 396 q 796 480 762 544 q 728 608 663 644 q 598 680 507 680 q 425 680 354 646 q 283 611 230 548 q 176 485 146 400 q 116 314 116 212 q 116 107 154 38 q 193 -32 258 -66 q 323 -101 402 -101 q 491 -101 557 -73 q 623 -45 667 -12 l 687 -41 q 637 -80 564 -110 q 490 -141 395 -141 z m 406 120 q 444 120 469 139 q 494 158 510 190 q 525 222 532 260 l 571 463 q 562 478 542 488 q 522 498 500 498 q 453 498 418 472 q 384 445 362 404 q 340 363 329 318 q 318 272 318 234 q 318 177 342 148 q 366 120 406 120 z"},".":{"x_min":0,"x_max":219,"ha":219,"o":"m 58 -7 q 39 -7 28 4 q 16 14 16 34 q 16 70 34 87 q 52 104 71 104 q 89 104 101 94 q 113 84 113 65 q 113 26 96 10 q 79 -7 58 -7 z"},"p":{"x_min":0,"x_max":535,"ha":535,"o":"m -6 -240 l 130 406 q 134 425 136 442 q 139 459 139 467 q 139 490 122 497 q 106 504 72 504 l 58 504 l 65 536 l 214 536 l 190 400 l 194 400 q 214 439 240 472 q 265 506 298 526 q 330 546 372 546 q 493 546 493 368 q 493 325 482 274 q 470 223 446 173 q 423 123 388 82 q 353 40 306 15 q 260 -10 201 -10 q 172 -10 150 -4 q 127 2 109 13 q 108 9 106 -4 q 105 -18 101 -35 l 84 -114 q 82 -124 78 -142 q 75 -159 75 -172 q 75 -194 92 -201 q 108 -208 142 -208 l 159 -208 l 151 -240 z m 203 25 q 245 25 280 48 q 314 71 341 109 q 368 147 387 192 q 406 238 416 284 q 425 330 425 368 q 425 424 408 462 q 392 500 351 500 q 319 500 289 476 q 259 452 234 414 q 208 377 190 336 q 172 295 165 261 l 121 56 q 130 44 151 34 q 172 25 203 25 z"},"X":{"x_min":0,"x_max":619,"ha":619,"o":"m -50 0 l -43 32 l -31 32 q -10 32 6 38 q 21 43 38 58 q 54 74 80 104 l 295 362 l 192 631 q 180 663 165 672 q 150 682 118 682 l 104 682 l 111 714 l 343 714 l 336 682 l 305 682 q 281 682 272 676 q 263 671 263 658 q 263 640 282 589 l 345 419 l 490 602 q 504 621 513 635 q 522 649 522 661 q 522 672 512 677 q 501 682 471 682 l 460 682 l 467 714 l 683 714 l 676 682 l 662 682 q 638 682 622 676 q 606 670 590 654 q 573 637 546 604 l 360 379 l 479 81 q 491 50 505 41 q 519 32 538 32 l 559 32 l 552 0 l 318 0 l 325 32 l 343 32 q 377 32 391 40 q 405 47 405 61 q 405 72 400 88 q 395 104 383 136 l 311 322 l 153 129 q 110 73 110 55 q 110 42 122 37 q 133 32 169 32 l 184 32 l 177 0 z"},"*":{"x_min":0,"x_max":448,"ha":448,"o":"m 290 375 l 223 389 l 277 547 l 117 488 l 102 553 l 272 574 l 126 663 l 166 717 l 288 596 l 303 763 l 368 749 l 314 591 l 475 650 l 489 584 l 318 564 l 465 476 l 427 424 l 303 542 z"},"Y":{"x_min":0,"x_max":585,"ha":585,"o":"m 98 0 l 104 32 l 136 32 q 171 32 192 45 q 212 58 223 109 l 267 319 l 147 635 q 136 663 126 672 q 117 682 88 682 l 75 682 l 82 714 l 320 714 l 312 682 l 256 682 q 234 682 225 676 q 216 670 216 660 q 216 648 220 635 q 223 622 230 602 l 280 468 q 291 440 302 406 q 312 373 316 350 q 328 370 346 393 q 364 416 390 449 l 491 578 q 520 613 528 630 q 536 648 536 660 q 536 671 528 676 q 519 682 493 682 l 445 682 l 452 714 l 681 714 l 674 682 l 655 682 q 632 682 616 667 q 600 652 567 611 l 335 317 l 291 109 q 288 97 286 86 q 284 75 284 68 q 284 46 300 39 q 316 32 345 32 l 377 32 l 370 0 z"},"c":{"x_min":0,"x_max":466,"ha":466,"o":"m 225 -10 q 176 -10 135 13 q 94 36 70 82 q 45 127 45 197 q 45 255 64 316 q 83 377 119 429 q 155 481 206 514 q 258 546 324 546 q 394 546 428 514 q 463 482 463 445 q 463 422 448 408 q 432 394 403 394 q 403 444 380 476 q 358 508 313 508 q 268 508 231 477 q 194 446 168 397 q 142 348 128 294 q 114 240 114 193 q 114 118 147 78 q 180 37 235 37 q 284 37 320 60 q 356 82 377 111 q 385 106 385 92 q 385 72 366 48 q 348 24 312 7 q 277 -10 225 -10 z"},"!":{"x_min":0,"x_max":297,"ha":297,"o":"m 107 186 l 202 714 l 279 714 l 147 186 z m 93 -8 q 74 -8 62 3 q 50 14 50 35 q 50 68 68 85 q 86 102 106 102 q 124 102 136 92 q 147 81 147 61 q 147 25 130 8 q 114 -8 93 -8 z"},"/":{"x_min":0,"x_max":288,"ha":288,"o":"m -87 -121 l 322 760 l 370 760 l -40 -121 z"},"[":{"x_min":0,"x_max":328,"ha":328,"o":"m -5 -128 l 184 760 l 376 760 l 369 728 l 315 728 q 278 728 258 717 q 238 706 228 659 l 81 -30 q 80 -40 78 -50 q 76 -60 76 -66 q 76 -85 90 -90 q 105 -96 138 -96 l 195 -96 l 188 -128 z"},"6":{"x_min":0,"x_max":537,"ha":537,"o":"m 244 -10 q 166 -10 116 50 q 65 109 65 228 q 65 330 89 420 q 113 509 157 578 q 201 646 262 685 q 322 724 394 724 q 462 724 498 694 q 533 665 533 628 q 533 605 518 590 q 503 574 473 574 q 473 604 466 630 q 460 655 442 670 q 424 686 390 686 q 336 686 288 648 q 239 610 202 540 q 166 470 146 374 q 173 396 214 414 q 255 431 304 431 q 360 431 398 408 q 435 384 454 344 q 472 305 472 258 q 472 188 447 127 q 422 66 371 28 q 320 -10 244 -10 z m 248 31 q 296 31 332 62 q 367 92 386 143 q 405 194 405 254 q 405 319 375 356 q 345 392 293 392 q 252 392 212 374 q 171 356 139 328 q 132 293 130 264 q 127 234 127 208 q 127 119 160 75 q 192 31 248 31 z"},"r":{"x_min":0,"x_max":421,"ha":421,"o":"m 46 0 l 132 416 q 134 427 136 440 q 138 454 138 462 q 138 489 119 496 q 100 504 66 504 l 52 504 l 59 536 l 208 536 l 186 398 l 192 398 q 210 438 232 472 q 255 506 284 526 q 313 546 353 546 q 393 546 412 527 q 430 508 430 482 q 430 456 416 442 q 401 427 372 427 q 372 462 362 480 q 352 499 329 499 q 302 499 275 474 q 248 450 224 408 q 201 366 182 313 q 163 260 151 203 l 110 0 z"},"2":{"x_min":0,"x_max":537,"ha":537,"o":"m -10 0 l 6 60 l 246 282 q 310 341 348 388 q 386 436 402 480 q 419 524 419 572 q 419 624 389 654 q 359 685 306 685 q 260 685 228 665 q 197 645 180 612 q 162 580 159 541 q 136 541 122 552 q 109 563 109 587 q 109 618 132 650 q 155 682 200 703 q 244 724 309 724 q 395 724 442 684 q 488 643 488 574 q 488 524 466 478 q 445 431 400 380 q 356 330 288 267 l 56 55 l 304 55 q 348 55 365 72 q 382 89 393 122 l 403 152 l 435 152 l 400 0 z"},"{":{"x_min":0,"x_max":420,"ha":420,"o":"m 228 -130 q 124 -130 124 -33 q 124 -22 126 -10 q 128 3 130 16 l 165 179 q 168 191 170 202 q 172 214 172 225 q 172 264 146 280 q 121 297 71 299 l 79 333 q 133 336 170 358 q 208 380 222 444 l 259 618 q 270 668 286 699 q 301 730 332 745 q 363 760 418 760 l 467 760 l 459 725 l 432 725 q 382 725 360 700 q 337 676 323 614 l 286 441 q 276 388 245 356 q 214 324 155 317 l 155 313 q 198 308 218 284 q 238 260 238 226 q 238 215 236 204 q 234 192 232 180 l 197 19 q 195 6 193 -7 q 191 -20 191 -31 q 191 -65 207 -80 q 223 -95 255 -95 l 292 -95 l 284 -130 z"},"9":{"x_min":0,"x_max":537,"ha":537,"o":"m 185 -10 q 130 -10 100 4 q 70 19 58 40 q 46 62 46 85 q 46 104 58 117 q 69 130 90 130 q 91 88 112 58 q 134 28 189 28 q 266 28 324 116 q 383 204 415 358 q 387 329 344 306 q 300 282 247 282 q 166 282 122 330 q 77 377 77 450 q 77 534 110 596 q 143 657 198 690 q 254 724 323 724 q 403 724 452 670 q 502 617 502 520 q 502 456 490 384 q 478 311 454 242 q 429 172 391 115 q 353 58 302 24 q 250 -10 185 -10 z m 261 323 q 316 324 358 354 q 401 383 426 415 q 432 443 435 474 q 438 505 438 523 q 438 606 404 644 q 370 683 321 683 q 270 683 230 652 q 190 620 167 566 q 144 513 144 448 q 144 392 175 358 q 206 323 261 323 z"}," ":{"x_min":0,"x_max":260,"ha":260,"o":""},"I":{"x_min":0,"x_max":347,"ha":347,"o":"m -17 0 l -11 32 l 15 32 q 51 32 72 46 q 92 59 103 111 l 208 605 q 210 617 212 628 q 214 639 214 646 q 214 668 198 675 q 182 682 154 682 l 127 682 l 134 714 l 396 714 l 389 682 l 362 682 q 327 682 306 668 q 286 655 275 603 l 170 109 q 167 97 166 86 q 164 75 164 68 q 164 46 180 39 q 196 32 224 32 l 251 32 l 244 0 z"},"H":{"x_min":0,"x_max":778,"ha":778,"o":"m -17 0 l -11 32 l 15 32 q 51 32 72 46 q 92 59 103 111 l 208 605 q 210 617 212 628 q 214 639 214 646 q 214 668 198 675 q 182 682 154 682 l 127 682 l 134 714 l 396 714 l 390 682 l 362 682 q 327 682 306 668 q 286 655 275 603 l 230 393 l 593 393 l 638 605 q 640 617 642 628 q 644 639 644 646 q 644 668 628 675 q 612 682 584 682 l 557 682 l 563 714 l 826 714 l 819 682 l 792 682 q 757 682 736 668 q 716 655 705 603 l 600 109 q 598 97 596 86 q 594 75 594 68 q 594 46 610 39 q 626 32 654 32 l 681 32 l 674 0 l 412 0 l 418 32 l 446 32 q 481 32 502 46 q 522 59 533 111 l 584 354 l 222 354 l 170 109 q 168 97 166 86 q 164 75 164 68 q 164 46 180 39 q 196 32 224 32 l 252 32 l 245 0 z"},"4":{"x_min":0,"x_max":537,"ha":537,"o":"m 127 0 l 134 32 l 198 32 q 234 32 254 44 q 273 55 283 100 l 305 204 l -1 204 l 6 234 l 408 714 l 478 714 l 379 246 l 504 246 l 495 204 l 370 204 l 348 98 q 343 80 343 67 q 343 44 358 38 q 373 32 405 32 l 445 32 l 438 0 z m 317 546 l 68 246 l 313 246 l 360 469 q 370 516 381 565 q 392 614 406 660 q 397 646 381 626 q 365 605 348 584 q 330 562 317 546 z"},"~":{"x_min":0,"x_max":559,"ha":559,"o":"m 59 273 q 63 300 69 329 q 75 358 87 383 q 99 408 120 424 q 141 440 175 440 q 210 440 237 421 q 264 402 296 373 q 318 350 340 334 q 362 318 384 318 q 417 318 430 353 q 443 388 453 440 l 499 440 q 496 417 490 388 q 483 360 471 334 q 459 307 438 290 q 417 273 384 273 q 351 273 323 291 q 295 309 269 335 q 247 357 226 376 q 204 395 175 395 q 142 395 128 364 q 113 334 104 273 z"},"D":{"x_min":0,"x_max":697,"ha":697,"o":"m -16 0 l -9 32 l 16 32 q 51 32 72 44 q 92 56 102 103 l 208 604 q 211 616 213 626 q 215 637 215 645 q 215 669 198 676 q 180 682 149 682 l 127 682 l 135 714 l 392 714 q 522 714 594 644 q 665 575 665 442 q 665 353 640 273 q 615 193 566 132 q 516 70 444 35 q 372 0 277 0 z m 156 39 l 265 39 q 368 39 441 92 q 514 146 554 238 q 593 331 593 448 q 593 565 536 620 q 478 675 383 675 l 291 675 z"},"^":{"x_min":0,"x_max":559,"ha":559,"o":"m 54 269 l 263 714 l 293 714 l 504 269 l 454 269 l 278 648 l 104 269 z"},"0":{"x_min":0,"x_max":537,"ha":537,"o":"m 218 -11 q 137 -11 88 49 q 40 109 40 226 q 40 287 51 355 q 62 423 84 488 q 107 554 142 608 q 177 661 225 692 q 273 724 335 724 q 385 724 426 700 q 466 677 490 626 q 513 576 513 493 q 513 432 503 363 q 493 294 471 228 q 449 161 414 107 q 380 53 331 21 q 282 -11 218 -11 z m 225 30 q 274 30 311 61 q 348 92 374 144 q 400 196 416 258 q 432 320 440 384 q 447 447 447 501 q 447 600 415 642 q 383 683 330 683 q 281 683 244 652 q 207 620 180 568 q 154 516 138 453 q 121 390 114 327 q 106 264 106 211 q 106 117 138 74 q 170 30 225 30 z"},"F":{"x_min":0,"x_max":571,"ha":571,"o":"m -17 0 l -11 32 l 15 32 q 50 32 70 45 q 90 58 102 109 l 205 591 q 209 609 212 624 q 214 640 214 647 q 214 670 198 676 q 183 682 150 682 l 127 682 l 135 714 l 611 714 l 580 545 l 540 545 q 542 561 546 586 q 549 611 549 619 q 549 648 535 662 q 521 675 480 675 l 291 675 l 226 371 l 475 371 l 468 333 l 218 333 l 170 111 q 168 99 166 89 q 165 79 165 72 q 165 46 180 39 q 196 32 223 32 l 261 32 l 255 0 z"},"`":{"x_min":0,"x_max":244,"ha":244,"o":"m 249 606 q 220 643 192 682 q 165 720 144 757 l 147 766 l 214 766 q 224 736 243 694 q 262 652 279 617 l 276 606 z"},"k":{"x_min":0,"x_max":553,"ha":553,"o":"m 487 -7 q 442 -6 414 2 q 385 9 366 31 q 348 53 331 96 l 260 277 l 153 201 l 112 0 l 49 0 l 180 635 q 184 654 186 670 q 189 686 189 692 q 189 715 175 722 q 161 728 133 728 l 107 728 l 114 760 l 271 760 l 232 573 q 225 540 216 497 q 207 454 196 408 q 186 362 176 319 q 166 276 158 243 l 363 418 q 394 444 407 460 q 420 476 420 487 q 420 498 410 501 q 401 504 364 504 l 371 536 l 575 536 l 568 504 q 536 504 506 486 q 476 468 423 422 l 307 320 l 395 112 q 414 66 436 46 q 459 27 503 27 l 496 -7 z"},"u":{"x_min":0,"x_max":557,"ha":557,"o":"m 431 -10 q 395 -10 378 18 q 361 46 361 84 q 361 94 362 107 q 363 120 365 140 l 360 140 q 319 70 276 30 q 232 -9 170 -9 q 114 -9 91 24 q 68 58 68 102 q 68 127 74 160 q 81 192 88 220 l 128 394 q 132 413 136 436 q 140 459 140 467 q 140 491 124 498 q 107 504 75 504 l 61 504 l 68 536 l 224 536 l 155 234 q 148 205 140 168 q 133 131 133 109 q 133 78 148 58 q 162 37 193 37 q 226 37 257 59 q 288 81 315 118 q 342 154 361 196 q 380 238 389 279 l 443 536 l 508 536 l 440 218 q 433 187 428 152 q 424 116 424 94 q 424 67 432 52 q 440 36 458 36 q 486 36 521 63 l 537 39 q 518 22 490 6 q 463 -10 431 -10 z"},"]":{"x_min":0,"x_max":328,"ha":328,"o":"m -41 -128 l -33 -96 l 20 -96 q 58 -96 77 -85 q 96 -74 106 -27 l 253 662 q 255 672 257 682 q 259 692 259 698 q 259 717 244 722 q 230 728 197 728 l 140 728 l 147 760 l 339 760 l 151 -128 z"},"U":{"x_min":0,"x_max":725,"ha":725,"o":"m 318 -10 q 218 -10 162 35 q 106 80 106 162 q 106 178 110 206 q 113 234 118 259 l 192 605 q 195 617 196 628 q 198 639 198 646 q 198 668 182 675 q 166 682 138 682 l 111 682 l 118 714 l 380 714 l 374 682 l 347 682 q 312 682 291 668 q 270 655 259 603 l 185 257 q 178 226 175 200 q 172 174 172 156 q 172 100 213 67 q 254 34 327 34 q 395 34 436 56 q 478 78 500 115 q 522 152 531 196 l 618 605 q 620 617 622 628 q 624 639 624 646 q 624 668 608 675 q 592 682 564 682 l 536 682 l 543 714 l 784 714 l 778 682 l 751 682 q 716 682 695 668 q 674 655 663 603 l 577 195 q 558 102 498 46 q 437 -10 318 -10 z"},"o":{"x_min":0,"x_max":548,"ha":548,"o":"m 225 -10 q 146 -10 95 40 q 44 90 44 194 q 44 249 61 310 q 78 372 113 426 q 148 479 200 512 q 253 546 325 546 q 374 546 415 525 q 456 504 480 459 q 504 414 504 341 q 504 299 494 251 q 483 203 461 157 q 439 111 406 73 q 373 35 328 12 q 283 -10 225 -10 z m 231 29 q 284 29 322 61 q 361 93 386 143 q 410 193 422 248 q 434 304 434 351 q 434 432 403 470 q 372 507 317 507 q 265 507 227 476 q 189 444 164 394 q 139 345 126 289 q 114 233 114 184 q 114 100 146 64 q 178 29 231 29 z"},"N":{"x_min":0,"x_max":744,"ha":744,"o":"m -17 0 l -10 32 l 17 32 q 52 32 72 46 q 92 59 103 111 l 208 605 q 210 617 212 628 q 214 639 214 646 q 214 668 198 675 q 182 682 154 682 l 127 682 l 134 714 l 291 714 l 530 112 l 635 605 q 638 617 640 628 q 642 639 642 646 q 642 668 626 675 q 610 682 581 682 l 554 682 l 561 714 l 801 714 l 794 682 l 768 682 q 732 682 712 668 q 692 655 681 603 l 553 0 l 505 0 l 257 621 l 148 109 q 146 97 144 86 q 142 75 142 68 q 142 46 158 39 q 174 32 202 32 l 230 32 l 223 0 z"},"+":{"x_min":0,"x_max":559,"ha":559,"o":"m 256 143 l 256 335 l 65 335 l 65 380 l 256 380 l 256 572 l 302 572 l 302 380 l 494 380 l 494 335 l 302 335 l 302 143 z"},"G":{"x_min":0,"x_max":683,"ha":683,"o":"m 323 -10 q 189 -10 122 62 q 54 134 54 258 q 54 354 84 438 q 115 523 170 587 q 226 651 302 688 q 377 724 467 724 q 564 724 615 691 q 666 658 666 605 q 666 577 646 562 q 626 548 596 548 q 596 614 562 649 q 527 684 454 684 q 385 684 326 650 q 266 615 221 554 q 176 494 151 416 q 126 337 126 249 q 126 152 174 92 q 222 32 332 32 q 371 32 410 39 q 448 46 474 59 l 507 212 q 510 224 512 237 q 513 250 513 258 q 513 280 497 286 q 481 292 450 292 l 433 292 l 441 324 l 668 324 l 660 292 l 650 292 q 631 292 617 288 q 603 283 592 266 q 582 248 574 210 l 536 36 q 485 13 434 2 q 384 -10 323 -10 z"},"q":{"x_min":0,"x_max":519,"ha":519,"o":"m 264 -240 l 313 -12 q 318 10 325 42 q 332 75 340 106 q 348 136 352 154 l 347 154 q 328 112 302 74 q 276 37 242 14 q 207 -10 163 -10 q 108 -10 75 36 q 42 82 42 169 q 42 215 54 267 q 66 319 90 368 q 114 418 149 458 q 184 498 230 522 q 276 546 332 546 q 358 546 385 539 q 412 532 432 519 l 470 546 l 494 546 l 353 -119 q 345 -157 345 -173 q 345 -195 360 -202 q 375 -208 407 -208 l 425 -208 l 417 -240 z m 183 36 q 212 36 242 58 q 271 80 298 116 q 324 153 344 198 q 364 242 374 287 l 412 473 q 404 489 383 500 q 362 510 334 510 q 290 510 254 486 q 219 463 192 425 q 165 387 146 341 q 128 295 119 250 q 110 204 110 166 q 110 99 131 68 q 152 36 183 36 z"},"d":{"x_min":0,"x_max":538,"ha":538,"o":"m 162 -10 q 100 -10 71 38 q 42 86 42 168 q 42 215 54 267 q 66 319 90 368 q 114 418 148 458 q 183 498 228 522 q 273 546 328 546 q 357 546 382 538 q 408 529 426 515 q 429 532 433 552 q 437 571 440 585 l 452 640 q 456 656 458 670 q 459 683 459 692 q 459 714 445 721 q 431 728 403 728 l 378 728 l 385 760 l 541 760 l 422 208 q 418 186 412 151 q 406 116 406 94 q 406 36 442 36 q 475 36 514 66 l 529 42 q 508 22 476 6 q 445 -10 413 -10 q 341 -10 341 78 q 341 109 352 156 l 347 156 q 306 70 260 30 q 213 -10 162 -10 z m 183 36 q 211 36 240 58 q 270 81 297 119 q 324 157 345 204 q 366 251 377 301 l 413 470 q 401 490 378 500 q 356 510 330 510 q 288 510 253 487 q 218 464 192 426 q 165 387 147 342 q 129 296 120 250 q 110 204 110 166 q 110 95 130 66 q 151 36 183 36 z"},"1":{"x_min":0,"x_max":537,"ha":537,"o":"m 39 0 l 46 32 l 109 32 q 147 32 168 42 q 188 53 197 99 l 279 482 q 292 544 302 585 q 312 626 319 657 l 317 657 q 260 608 223 582 q 186 556 157 556 q 138 556 131 567 q 124 578 124 594 q 158 602 193 618 q 228 634 285 671 l 358 718 l 396 718 l 265 96 q 260 78 260 63 q 260 44 275 38 q 290 32 320 32 l 390 32 l 383 0 z"},"5":{"x_min":0,"x_max":537,"ha":537,"o":"m 190 -10 q 128 -10 90 7 q 52 24 35 50 q 18 77 18 104 q 18 125 30 138 q 43 150 70 150 q 70 119 82 92 q 95 65 122 48 q 150 31 194 31 q 275 31 328 84 q 380 136 380 236 q 380 304 342 343 q 303 382 240 382 q 200 382 176 375 q 152 368 129 360 l 106 369 l 211 714 l 516 714 l 490 582 l 458 582 q 460 601 461 616 q 462 630 462 636 q 462 648 454 654 q 446 659 418 659 l 235 659 l 159 407 q 175 412 198 418 q 220 423 252 423 q 340 423 394 376 q 449 328 449 240 q 449 169 418 112 q 387 56 330 23 q 272 -10 190 -10 z"}}}
